#N canvas -8 0 1920 966 12;
#X obj 518 176 oscparse;
#X obj 515 126 netreceive -u -b 5005;
#X obj 545 237 route list;
#X obj 773 307 route cell;
#X obj 493 479 route rgb;
#X obj 413 267 print;
#X obj 586 360 route 0;
#X obj 566 396 route 0;
#X obj 552 455 route brightness;
#X obj 613 503 route contrast;
#X obj 566 600 route dominant;
#X obj 729 582 route rgb;
#X obj 757 480 route brightness;
#X obj 818 528 route contrast;
#X obj 771 625 route dominant;
#X obj 791 385 route 0;
#X obj 771 421 route 1;
#X obj 960 491 route rgb;
#X obj 1019 467 route brightness;
#X obj 1080 515 route contrast;
#X obj 1033 612 route dominant;
#X obj 1053 372 route 0;
#X obj 1033 408 route 2;
#X obj 1897 881 route rgb;
#X obj 1273 461 route brightness;
#X obj 1334 509 route contrast;
#X obj 1287 606 route dominant;
#X obj 1307 366 route 0;
#X obj 1287 402 route 3;
#X obj 437 799 route rgb;
#X obj 521 775 route brightness;
#X obj 557 823 route contrast;
#X obj 510 920 route dominant;
#X obj 673 902 route rgb;
#X obj 701 800 route brightness;
#X obj 762 848 route contrast;
#X obj 715 945 route dominant;
#X obj 904 811 route rgb;
#X obj 963 787 route brightness;
#X obj 1024 835 route contrast;
#X obj 977 932 route dominant;
#X obj 1158 805 route rgb;
#X obj 1217 781 route brightness;
#X obj 1278 829 route contrast;
#X obj 1231 926 route dominant;
#X obj 1515 486 route rgb;
#X obj 1574 462 route brightness;
#X obj 1635 510 route contrast;
#X obj 1588 607 route dominant;
#X obj 1751 589 route rgb;
#X obj 1779 487 route brightness;
#X obj 1840 535 route contrast;
#X obj 1793 632 route dominant;
#X obj 1982 498 route rgb;
#X obj 2041 474 route brightness;
#X obj 2102 522 route contrast;
#X obj 2055 619 route dominant;
#X obj 2236 492 route rgb;
#X obj 2295 468 route brightness;
#X obj 2356 516 route contrast;
#X obj 2309 613 route dominant;
#X obj 1440 809 route rgb;
#X obj 1499 785 route brightness;
#X obj 1560 833 route contrast;
#X obj 1513 930 route dominant;
#X obj 1676 912 route rgb;
#X obj 1704 810 route brightness;
#X obj 1765 858 route contrast;
#X obj 1718 955 route dominant;
#X obj 1907 821 route rgb;
#X obj 1966 797 route brightness;
#X obj 2027 845 route contrast;
#X obj 1980 942 route dominant;
#X obj 2161 815 route rgb;
#X obj 2220 791 route brightness;
#X obj 2281 839 route contrast;
#X obj 2234 936 route dominant;
#X obj 1608 367 route 1;
#X obj 1588 403 route 0;
#X obj 1807 395 route 1;
#X obj 1793 428 route 1;
#X obj 2075 379 route 1;
#X obj 2055 415 route 2;
#X obj 2329 373 route 1;
#X obj 2309 409 route 3;
#X obj 530 680 route 2;
#X obj 510 716 route 0;
#X obj 735 705 route 2;
#X obj 715 741 route 1;
#X obj 997 692 route 2;
#X obj 979 728 route 2;
#X obj 1251 686 route 2;
#X obj 1231 722 route 3;
#X obj 1513 726 route 0;
#X obj 1533 690 route 3;
#X obj 1738 715 route 3;
#X obj 1718 751 route 1;
#X obj 1980 738 route 2;
#X obj 2000 702 route 3;
#X obj 2254 696 route 3;
#X obj 2234 732 route 3;
#X obj 349 533 unpack f f f;
#X obj 527 1084 bng 19 250 50 0 empty empty empty 0 -10 0 12 #fcfcfc #000000 #000000;
#X obj 527 1133 int;
#X obj 596 1129 + 1;
#X msg 591 1083 0;
#X floatatom 530 1176 5 0 0 0 - - - 0;
#X obj 531 1210 % 4;
#X floatatom 531 1234 5 0 0 0 - - - 0;
#X obj 531 1257 + 1;
#X floatatom 531 1281 5 0 0 0 - - - 0;
#X obj 537 1337 + 80;
#X obj 537 1361 phasor~ 440;
#X obj 558 1482 *~;
#X obj 743 1258 tgl 19 0 empty empty empty 0 -10 0 12 #fcfcfc #000000 #000000 0 1;
#X obj 722 1300 metro 500;
#X obj 726 1383 delay 65;
#X msg 664 1429 0;
#X msg 653 1374 4;
#X obj 890 1182 tgl 19 0 empty empty empty 0 -10 0 12 #fcfcfc #000000 #000000 0 1;
#X obj 1042 1252 tgl 19 0 empty empty empty 0 -10 0 12 #fcfcfc #000000 #000000 0 1;
#X obj 1038 1311 metro 125;
#X obj 1043 1362 bng 19 250 50 0 empty empty empty 0 -10 0 12 #fcfcfc #000000 #000000;
#X obj 1038 1395 random 10;
#X floatatom 1043 1430 5 0 0 0 - - - 0;
#X obj 1046 1462 * 80;
#X obj 1012 1497 osc~;
#X obj 1095 1502 * 2;
#X obj 1095 1526 osc~;
#X obj 1037 1576 *~ 0.5;
#X obj 930 1291 tgl 19 0 empty empty empty 0 -10 0 12 #fcfcfc #000000 #000000 0 1;
#X obj 912 1354 metro 250;
#X obj 925 1386 bng 19 250 50 0 empty empty empty 0 -10 0 12 #fcfcfc #000000 #000000;
#X obj 929 1425 delay 50;
#X obj 813 1277 noise~;
#X obj 806 1321 hip~ 3000;
#X obj 792 1500 *~;
#X obj 786 1621 *~ 1;
#X obj 896 1502 tgl 19 0 empty empty empty 0 -10 0 12 #fcfcfc #000000 #000000 0 1;
#X msg 857 1405;
#X msg 847 1486;
#X obj 787 1652 *~ 0.1;
#X obj 788 1693 dac~;
#X floatatom 677 1007 5 0 0 0 - - - 0;
#X floatatom 758 1011 5 0 0 0 - - - 0;
#X floatatom 842 1009 5 0 0 0 - - - 0;
#X obj 690 1061 * 2000;
#X obj 1151 1089 bng 19 250 50 0 empty empty empty 0 -10 0 12 #fcfcfc #000000 #000000;
#X obj 1151 1138 int;
#X obj 1220 1134 + 1;
#X msg 1215 1088 0;
#X floatatom 1154 1181 5 0 0 0 - - - 0;
#X obj 1155 1215 % 4;
#X floatatom 1155 1239 5 0 0 0 - - - 0;
#X obj 1155 1262 + 1;
#X floatatom 1155 1286 5 0 0 0 - - - 0;
#X obj 1161 1342 + 80;
#X obj 1161 1366 phasor~ 440;
#X obj 1182 1487 *~;
#X obj 1367 1263 tgl 19 0 empty empty empty 0 -10 0 12 #fcfcfc #000000 #000000 0 1;
#X obj 1346 1305 metro 500;
#X obj 1350 1388 delay 65;
#X msg 1288 1434 0;
#X msg 1277 1379 4;
#X obj 1514 1187 tgl 19 0 empty empty empty 0 -10 0 12 #fcfcfc #000000 #000000 0 1;
#X obj 1666 1257 tgl 19 0 empty empty empty 0 -10 0 12 #fcfcfc #000000 #000000 0 1;
#X obj 1662 1316 metro 125;
#X obj 1667 1367 bng 19 250 50 0 empty empty empty 0 -10 0 12 #fcfcfc #000000 #000000;
#X obj 1662 1400 random 10;
#X floatatom 1667 1435 5 0 0 0 - - - 0;
#X obj 1670 1467 * 80;
#X obj 1636 1502 osc~;
#X obj 1719 1507 * 2;
#X obj 1719 1531 osc~;
#X obj 1661 1581 *~ 0.5;
#X obj 1554 1296 tgl 19 0 empty empty empty 0 -10 0 12 #fcfcfc #000000 #000000 0 1;
#X obj 1536 1359 metro 250;
#X obj 1549 1391 bng 19 250 50 0 empty empty empty 0 -10 0 12 #fcfcfc #000000 #000000;
#X obj 1553 1430 delay 50;
#X obj 1437 1282 noise~;
#X obj 1430 1326 hip~ 3000;
#X obj 1416 1505 *~;
#X obj 1410 1626 *~ 1;
#X obj 1520 1507 tgl 19 0 empty empty empty 0 -10 0 12 #fcfcfc #000000 #000000 0 1;
#X msg 1481 1410;
#X msg 1471 1491;
#X obj 1411 1657 *~ 0.1;
#X obj 1412 1698 dac~;
#X floatatom 1301 1012 5 0 0 0 - - - 0;
#X floatatom 1382 1016 5 0 0 0 - - - 0;
#X floatatom 1466 1014 5 0 0 0 - - - 0;
#X obj 817 692 unpack rgb;
#X obj 1314 1066 * 1000;
#X obj 759 1067 * 1500;
#X obj 1383 1072 * 3000;
#X obj 1482 1068 * 500;
#X obj 858 1063 * 800;
#X obj 1821 1092 bng 19 250 50 0 empty empty empty 0 -10 0 12 #fcfcfc #000000 #000000;
#X obj 1821 1141 int;
#X obj 1890 1137 + 1;
#X msg 1885 1091 0;
#X floatatom 1824 1184 5 0 0 0 - - - 0;
#X obj 1825 1218 % 4;
#X floatatom 1825 1242 5 0 0 0 - - - 0;
#X obj 1825 1265 + 1;
#X floatatom 1825 1289 5 0 0 0 - - - 0;
#X obj 1831 1345 + 80;
#X obj 1831 1369 phasor~ 440;
#X obj 1852 1490 *~;
#X obj 2037 1266 tgl 19 0 empty empty empty 0 -10 0 12 #fcfcfc #000000 #000000 0 1;
#X obj 2016 1308 metro 500;
#X obj 2020 1391 delay 65;
#X msg 1958 1437 0;
#X msg 1947 1382 4;
#X obj 2184 1190 tgl 19 0 empty empty empty 0 -10 0 12 #fcfcfc #000000 #000000 0 1;
#X obj 2336 1260 tgl 19 0 empty empty empty 0 -10 0 12 #fcfcfc #000000 #000000 0 1;
#X obj 2332 1319 metro 125;
#X obj 2337 1370 bng 19 250 50 0 empty empty empty 0 -10 0 12 #fcfcfc #000000 #000000;
#X obj 2332 1403 random 10;
#X floatatom 2337 1438 5 0 0 0 - - - 0;
#X obj 2340 1470 * 80;
#X obj 2306 1505 osc~;
#X obj 2389 1510 * 2;
#X obj 2389 1534 osc~;
#X obj 2331 1584 *~ 0.5;
#X obj 2224 1299 tgl 19 0 empty empty empty 0 -10 0 12 #fcfcfc #000000 #000000 0 1;
#X obj 2206 1362 metro 250;
#X obj 2219 1394 bng 19 250 50 0 empty empty empty 0 -10 0 12 #fcfcfc #000000 #000000;
#X obj 2223 1433 delay 50;
#X obj 2107 1285 noise~;
#X obj 2100 1329 hip~ 3000;
#X obj 2086 1508 *~;
#X obj 2080 1629 *~ 1;
#X obj 2190 1510 tgl 19 0 empty empty empty 0 -10 0 12 #fcfcfc #000000 #000000 0 1;
#X msg 2151 1413;
#X msg 2141 1494;
#X obj 2081 1660 *~ 0.1;
#X obj 2082 1701 dac~;
#X floatatom 1971 1015 5 0 0 0 - - - 0;
#X floatatom 2052 1019 5 0 0 0 - - - 0;
#X floatatom 2136 1017 5 0 0 0 - - - 0;
#X obj 1984 1069 * 2000;
#X obj 2053 1075 * 2000;
#X obj 2152 1071 * 2000;
#X obj 2438 1087 bng 19 250 50 0 empty empty empty 0 -10 0 12 #fcfcfc #000000 #000000;
#X obj 2438 1136 int;
#X obj 2507 1132 + 1;
#X msg 2502 1086 0;
#X floatatom 2441 1179 5 0 0 0 - - - 0;
#X obj 2442 1213 % 4;
#X floatatom 2442 1237 5 0 0 0 - - - 0;
#X obj 2442 1260 + 1;
#X floatatom 2442 1284 5 0 0 0 - - - 0;
#X obj 2448 1340 + 80;
#X obj 2448 1364 phasor~ 440;
#X obj 2469 1485 *~;
#X obj 2654 1261 tgl 19 0 empty empty empty 0 -10 0 12 #fcfcfc #000000 #000000 0 1;
#X obj 2633 1303 metro 500;
#X obj 2637 1386 delay 65;
#X msg 2575 1432 0;
#X msg 2564 1377 4;
#X obj 2801 1185 tgl 19 0 empty empty empty 0 -10 0 12 #fcfcfc #000000 #000000 0 1;
#X obj 2953 1255 tgl 19 0 empty empty empty 0 -10 0 12 #fcfcfc #000000 #000000 0 1;
#X obj 2949 1314 metro 125;
#X obj 2954 1365 bng 19 250 50 0 empty empty empty 0 -10 0 12 #fcfcfc #000000 #000000;
#X obj 2949 1398 random 10;
#X floatatom 2954 1433 5 0 0 0 - - - 0;
#X obj 2957 1465 * 80;
#X obj 2923 1500 osc~;
#X obj 3006 1505 * 2;
#X obj 3006 1529 osc~;
#X obj 2948 1579 *~ 0.5;
#X obj 2841 1294 tgl 19 0 empty empty empty 0 -10 0 12 #fcfcfc #000000 #000000 0 1;
#X obj 2823 1357 metro 250;
#X obj 2836 1389 bng 19 250 50 0 empty empty empty 0 -10 0 12 #fcfcfc #000000 #000000;
#X obj 2840 1428 delay 50;
#X obj 2724 1280 noise~;
#X obj 2717 1324 hip~ 3000;
#X obj 2703 1503 *~;
#X obj 2697 1624 *~ 1;
#X obj 2807 1505 tgl 19 0 empty empty empty 0 -10 0 12 #fcfcfc #000000 #000000 0 1;
#X msg 2768 1408;
#X msg 2758 1489;
#X obj 2698 1655 *~ 0.1;
#X obj 2699 1696 dac~;
#X floatatom 2588 1010 5 0 0 0 - - - 0;
#X floatatom 2669 1014 5 0 0 0 - - - 0;
#X floatatom 2753 1012 5 0 0 0 - - - 0;
#X obj 2601 1064 * 2000;
#X obj 2670 1070 * 2000;
#X obj 2769 1066 * 2000;
#X obj 92 1082 tgl 19 0 empty empty empty 0 -10 0 12 #fcfcfc #000000 #000000 0 1;
#X obj 92 1123 metro;
#X obj 91 1156 f;
#X obj 148 1157 + 1;
#X obj 148 1181 mod 10;
#X obj 96 1248 tabread \$0-points;
#X floatatom 111 1282 5 0 0 0 - - - 0;
#N canvas 0 50 450 250 (subpatch) 0;
#X array \$0-points 10 float 3;
#A 0 0.400008 0 -0.21429 0 0.471438 0 -0.6143 -0.371436 0.528584 -0.657158;
#A color 0;
#A width 2;
#X coords 0 1 10 -1 200 140 1;
#X restore 275 1098 graph;
#X floatatom 85 1196 5 0 0 0 - - - 0;
#X obj 119 1362 vline~;
#X floatatom 177 1061 5 0 0 0 - - - 0;
#X obj 123 1414 *~;
#X obj 121 1456 dac~;
#X obj 266 921 * 100;
#X connect 0 0 2 0;
#X connect 1 0 0 0;
#X connect 2 0 3 0;
#X connect 3 0 6 0;
#X connect 3 0 15 0;
#X connect 3 0 21 0;
#X connect 3 0 27 0;
#X connect 3 0 77 0;
#X connect 3 0 79 0;
#X connect 3 0 81 0;
#X connect 3 0 83 0;
#X connect 3 0 85 0;
#X connect 3 0 87 0;
#X connect 3 0 89 0;
#X connect 3 0 91 0;
#X connect 3 0 94 0;
#X connect 3 0 95 0;
#X connect 3 0 98 0;
#X connect 3 0 99 0;
#X connect 4 0 101 0;
#X connect 6 0 7 0;
#X connect 7 0 4 0;
#X connect 7 0 8 0;
#X connect 7 0 9 0;
#X connect 7 0 10 0;
#X connect 11 0 191 0;
#X connect 15 0 16 0;
#X connect 16 0 11 0;
#X connect 16 0 12 0;
#X connect 16 0 13 0;
#X connect 16 0 14 0;
#X connect 17 0 238 0;
#X connect 17 0 239 0;
#X connect 17 0 240 0;
#X connect 21 0 22 0;
#X connect 22 0 17 0;
#X connect 22 0 18 0;
#X connect 22 0 19 0;
#X connect 22 0 20 0;
#X connect 23 0 285 0;
#X connect 23 0 286 0;
#X connect 23 0 287 0;
#X connect 27 0 28 0;
#X connect 28 0 23 0;
#X connect 28 0 24 0;
#X connect 28 0 25 0;
#X connect 28 0 26 0;
#X connect 30 0 302 1;
#X connect 31 0 304 0;
#X connect 77 0 78 0;
#X connect 78 0 45 0;
#X connect 78 0 46 0;
#X connect 78 0 47 0;
#X connect 78 0 48 0;
#X connect 79 0 80 0;
#X connect 80 0 49 0;
#X connect 80 0 50 0;
#X connect 80 0 51 0;
#X connect 80 0 52 0;
#X connect 81 0 82 0;
#X connect 82 0 53 0;
#X connect 82 0 54 0;
#X connect 82 0 55 0;
#X connect 82 0 56 0;
#X connect 83 0 84 0;
#X connect 84 0 57 0;
#X connect 84 0 58 0;
#X connect 84 0 59 0;
#X connect 84 0 60 0;
#X connect 85 0 86 0;
#X connect 86 0 29 0;
#X connect 86 0 30 0;
#X connect 86 0 31 0;
#X connect 86 0 32 0;
#X connect 87 0 88 0;
#X connect 88 0 33 0;
#X connect 88 0 34 0;
#X connect 88 0 35 0;
#X connect 88 0 36 0;
#X connect 89 0 90 0;
#X connect 90 0 37 0;
#X connect 90 0 38 0;
#X connect 90 0 39 0;
#X connect 90 0 40 0;
#X connect 91 0 92 0;
#X connect 92 0 41 0;
#X connect 92 0 42 0;
#X connect 92 0 43 0;
#X connect 92 0 44 0;
#X connect 93 0 61 0;
#X connect 93 0 62 0;
#X connect 93 0 63 0;
#X connect 93 0 64 0;
#X connect 94 0 93 0;
#X connect 95 0 96 0;
#X connect 96 0 65 0;
#X connect 96 0 66 0;
#X connect 96 0 67 0;
#X connect 96 0 68 0;
#X connect 97 0 69 0;
#X connect 97 0 70 0;
#X connect 97 0 71 0;
#X connect 97 0 72 0;
#X connect 98 0 97 0;
#X connect 99 0 100 0;
#X connect 100 0 73 0;
#X connect 100 0 74 0;
#X connect 100 0 75 0;
#X connect 100 0 76 0;
#X connect 101 0 143 0;
#X connect 101 1 144 0;
#X connect 101 2 145 0;
#X connect 102 0 103 0;
#X connect 103 0 104 0;
#X connect 103 0 106 0;
#X connect 104 0 103 1;
#X connect 105 0 103 1;
#X connect 106 0 107 0;
#X connect 107 0 108 0;
#X connect 108 0 109 0;
#X connect 109 0 110 0;
#X connect 110 0 111 0;
#X connect 111 0 112 0;
#X connect 112 0 113 0;
#X connect 113 0 137 0;
#X connect 114 0 115 0;
#X connect 115 0 116 0;
#X connect 115 0 118 0;
#X connect 115 0 102 0;
#X connect 116 0 117 0;
#X connect 117 0 113 1;
#X connect 118 0 113 1;
#X connect 119 0 114 0;
#X connect 119 0 120 0;
#X connect 119 0 130 0;
#X connect 119 0 138 0;
#X connect 119 0 106 0;
#X connect 120 0 121 0;
#X connect 121 0 122 0;
#X connect 122 0 123 0;
#X connect 123 0 124 0;
#X connect 124 0 125 0;
#X connect 125 0 126 0;
#X connect 125 0 127 0;
#X connect 126 0 137 0;
#X connect 127 0 128 0;
#X connect 128 0 129 0;
#X connect 129 0 137 0;
#X connect 130 0 131 0;
#X connect 131 0 132 0;
#X connect 132 0 133 0;
#X connect 132 0 139 0;
#X connect 133 0 140 0;
#X connect 134 0 135 0;
#X connect 135 0 136 0;
#X connect 136 0 137 0;
#X connect 137 0 141 0;
#X connect 138 0 137 1;
#X connect 139 0 136 1;
#X connect 140 0 136 1;
#X connect 141 0 142 0;
#X connect 141 0 142 1;
#X connect 143 0 146 0;
#X connect 144 0 193 0;
#X connect 145 0 196 0;
#X connect 146 0 111 1;
#X connect 146 0 125 1;
#X connect 147 0 148 0;
#X connect 148 0 149 0;
#X connect 148 0 151 0;
#X connect 149 0 148 1;
#X connect 150 0 148 1;
#X connect 151 0 152 0;
#X connect 152 0 153 0;
#X connect 153 0 154 0;
#X connect 154 0 155 0;
#X connect 155 0 156 0;
#X connect 156 0 157 0;
#X connect 157 0 158 0;
#X connect 158 0 182 0;
#X connect 159 0 160 0;
#X connect 160 0 161 0;
#X connect 160 0 163 0;
#X connect 160 0 147 0;
#X connect 161 0 162 0;
#X connect 162 0 158 1;
#X connect 163 0 158 1;
#X connect 164 0 159 0;
#X connect 164 0 165 0;
#X connect 164 0 175 0;
#X connect 164 0 183 0;
#X connect 164 0 151 0;
#X connect 165 0 166 0;
#X connect 166 0 167 0;
#X connect 167 0 168 0;
#X connect 168 0 169 0;
#X connect 169 0 170 0;
#X connect 170 0 171 0;
#X connect 170 0 172 0;
#X connect 171 0 182 0;
#X connect 172 0 173 0;
#X connect 173 0 174 0;
#X connect 174 0 182 0;
#X connect 175 0 176 0;
#X connect 176 0 177 0;
#X connect 177 0 178 0;
#X connect 177 0 184 0;
#X connect 178 0 185 0;
#X connect 179 0 180 0;
#X connect 180 0 181 0;
#X connect 181 0 182 0;
#X connect 182 0 186 0;
#X connect 183 0 182 1;
#X connect 184 0 181 1;
#X connect 185 0 181 1;
#X connect 186 0 187 0;
#X connect 186 0 187 1;
#X connect 188 0 192 0;
#X connect 189 0 194 0;
#X connect 190 0 195 0;
#X connect 191 0 188 0;
#X connect 191 0 189 0;
#X connect 191 0 190 0;
#X connect 192 0 156 1;
#X connect 192 0 170 1;
#X connect 193 0 111 1;
#X connect 193 0 125 1;
#X connect 194 0 156 1;
#X connect 194 0 170 1;
#X connect 195 0 156 1;
#X connect 195 0 170 1;
#X connect 196 0 111 1;
#X connect 196 0 125 1;
#X connect 197 0 198 0;
#X connect 198 0 199 0;
#X connect 198 0 201 0;
#X connect 199 0 198 1;
#X connect 200 0 198 1;
#X connect 201 0 202 0;
#X connect 202 0 203 0;
#X connect 203 0 204 0;
#X connect 204 0 205 0;
#X connect 205 0 206 0;
#X connect 206 0 207 0;
#X connect 207 0 208 0;
#X connect 208 0 232 0;
#X connect 209 0 210 0;
#X connect 210 0 211 0;
#X connect 210 0 213 0;
#X connect 210 0 197 0;
#X connect 211 0 212 0;
#X connect 212 0 208 1;
#X connect 213 0 208 1;
#X connect 214 0 209 0;
#X connect 214 0 215 0;
#X connect 214 0 225 0;
#X connect 214 0 233 0;
#X connect 214 0 201 0;
#X connect 215 0 216 0;
#X connect 216 0 217 0;
#X connect 217 0 218 0;
#X connect 218 0 219 0;
#X connect 219 0 220 0;
#X connect 220 0 221 0;
#X connect 220 0 222 0;
#X connect 221 0 232 0;
#X connect 222 0 223 0;
#X connect 223 0 224 0;
#X connect 224 0 232 0;
#X connect 225 0 226 0;
#X connect 226 0 227 0;
#X connect 227 0 228 0;
#X connect 227 0 234 0;
#X connect 228 0 235 0;
#X connect 229 0 230 0;
#X connect 230 0 231 0;
#X connect 231 0 232 0;
#X connect 232 0 236 0;
#X connect 233 0 232 1;
#X connect 234 0 231 1;
#X connect 235 0 231 1;
#X connect 236 0 237 0;
#X connect 236 0 237 1;
#X connect 238 0 241 0;
#X connect 239 0 242 0;
#X connect 240 0 243 0;
#X connect 241 0 206 1;
#X connect 241 0 220 1;
#X connect 242 0 206 1;
#X connect 242 0 220 1;
#X connect 243 0 206 1;
#X connect 243 0 220 1;
#X connect 244 0 245 0;
#X connect 245 0 246 0;
#X connect 245 0 248 0;
#X connect 246 0 245 1;
#X connect 247 0 245 1;
#X connect 248 0 249 0;
#X connect 249 0 250 0;
#X connect 250 0 251 0;
#X connect 251 0 252 0;
#X connect 252 0 253 0;
#X connect 253 0 254 0;
#X connect 254 0 255 0;
#X connect 255 0 279 0;
#X connect 256 0 257 0;
#X connect 257 0 258 0;
#X connect 257 0 260 0;
#X connect 257 0 244 0;
#X connect 258 0 259 0;
#X connect 259 0 255 1;
#X connect 260 0 255 1;
#X connect 261 0 256 0;
#X connect 261 0 262 0;
#X connect 261 0 272 0;
#X connect 261 0 280 0;
#X connect 261 0 248 0;
#X connect 262 0 263 0;
#X connect 263 0 264 0;
#X connect 264 0 265 0;
#X connect 265 0 266 0;
#X connect 266 0 267 0;
#X connect 267 0 268 0;
#X connect 267 0 269 0;
#X connect 268 0 279 0;
#X connect 269 0 270 0;
#X connect 270 0 271 0;
#X connect 271 0 279 0;
#X connect 272 0 273 0;
#X connect 273 0 274 0;
#X connect 274 0 275 0;
#X connect 274 0 281 0;
#X connect 275 0 282 0;
#X connect 276 0 277 0;
#X connect 277 0 278 0;
#X connect 278 0 279 0;
#X connect 279 0 283 0;
#X connect 280 0 279 1;
#X connect 281 0 278 1;
#X connect 282 0 278 1;
#X connect 283 0 284 0;
#X connect 283 0 284 1;
#X connect 285 0 288 0;
#X connect 286 0 289 0;
#X connect 287 0 290 0;
#X connect 288 0 253 1;
#X connect 288 0 267 1;
#X connect 289 0 253 1;
#X connect 289 0 267 1;
#X connect 290 0 253 1;
#X connect 290 0 267 1;
#X connect 291 0 292 0;
#X connect 292 0 293 0;
#X connect 293 0 294 0;
#X connect 293 0 299 0;
#X connect 294 0 295 0;
#X connect 295 0 293 1;
#X connect 296 0 297 0;
#X connect 297 0 300 0;
#X connect 299 0 296 0;
#X connect 300 0 302 0;
#X connect 301 0 292 1;
#X connect 302 0 303 0;
#X connect 302 0 303 1;
#X connect 304 0 301 0;
